HIERARCHY
ROOT mixamorig:Hips
{
	OFFSET -0.000008 104.274872 1.554316
	CHANNELS 6 Xposition Yposition Zposition Xrotation Yrotation Zrotation
	JOINT mixamorig:Spine
	{
		OFFSET -0.000005 10.181595 0.131519
		CHANNELS 6 Xposition Yposition Zposition Xrotation Yrotation Zrotation
		JOINT mixamorig:Spine1
		{
			OFFSET -0.000000 9.893959 -1.470707
			CHANNELS 6 Xposition Yposition Zposition Xrotation Yrotation Zrotation
			JOINT mixamorig:Spine2
			{
				OFFSET -0.000000 9.220757 -1.370641
				CHANNELS 6 Xposition Yposition Zposition Xrotation Yrotation Zrotation
				JOINT mixamorig:Neck
				{
					OFFSET 0.000001 16.740417 -2.049036
					CHANNELS 6 Xposition Yposition Zposition Xrotation Yrotation Zrotation
					JOINT mixamorig:Head
					{
						OFFSET 0.000000 9.617874 1.685006
						CHANNELS 6 Xposition Yposition Zposition Xrotation Yrotation Zrotation
						JOINT mixamorig:HeadTop_End
						{
							OFFSET 0.000002 22.037354 7.501101
							CHANNELS 6 Xposition Yposition Zposition Xrotation Yrotation Zrotation
							End Site
							{
								OFFSET 0.000168 2310.654297 -282.823242
							}
						}
					}
				}
				JOINT mixamorig:RightShoulder
				{
					OFFSET -4.569970 11.014908 -2.160885
					CHANNELS 6 Xposition Yposition Zposition Xrotation Yrotation Zrotation
					JOINT mixamorig:RightArm
					{
						OFFSET -10.592851 -0.524811 -2.232101
						CHANNELS 6 Xposition Yposition Zposition Xrotation Yrotation Zrotation
						JOINT mixamorig:RightForeArm
						{
							OFFSET -27.841511 0.000031 -0.000004
							CHANNELS 6 Xposition Yposition Zposition Xrotation Yrotation Zrotation
							JOINT mixamorig:RightHand
							{
								OFFSET -28.328831 -0.000015 0.000015
								CHANNELS 6 Xposition Yposition Zposition Xrotation Yrotation Zrotation
								JOINT mixamorig:RightHandThumb1
								{
									OFFSET -2.464806 -1.573990 2.681852
									CHANNELS 6 Xposition Yposition Zposition Xrotation Yrotation Zrotation
									JOINT mixamorig:RightHandThumb2
									{
										OFFSET -3.215179 -1.872803 1.924282
										CHANNELS 6 Xposition Yposition Zposition Xrotation Yrotation Zrotation
										JOINT mixamorig:RightHandThumb3
										{
											OFFSET -2.654831 -1.527969 1.512609
											CHANNELS 6 Xposition Yposition Zposition Xrotation Yrotation Zrotation
											JOINT mixamorig:RightHandThumb4
											{
												OFFSET -2.018814 -1.152008 1.108052
												CHANNELS 6 Xposition Yposition Zposition Xrotation Yrotation Zrotation
												End Site
												{
													OFFSET -188.809540 -114.533607 132.431396
												}
											}
										}
									}
								}
								JOINT mixamorig:RightHandIndex1
								{
									OFFSET -9.108284 -0.517868 2.259835
									CHANNELS 6 Xposition Yposition Zposition Xrotation Yrotation Zrotation
									JOINT mixamorig:RightHandIndex2
									{
										OFFSET -3.699989 0.000000 0.001215
										CHANNELS 6 Xposition Yposition Zposition Xrotation Yrotation Zrotation
										JOINT mixamorig:RightHandIndex3
										{
											OFFSET -2.850006 0.000031 -0.000522
											CHANNELS 6 Xposition Yposition Zposition Xrotation Yrotation Zrotation
											JOINT mixamorig:RightHandIndex4
											{
												OFFSET -2.772186 -0.000015 -0.000020
												CHANNELS 6 Xposition Yposition Zposition Xrotation Yrotation Zrotation
												End Site
												{
													OFFSET -277.218445 0.000000 -0.050231
												}
											}
										}
									}
								}
								JOINT mixamorig:RightHandMiddle1
								{
									OFFSET -9.532516 -0.000031 -0.000023
									CHANNELS 6 Xposition Yposition Zposition Xrotation Yrotation Zrotation
									JOINT mixamorig:RightHandMiddle2
									{
										OFFSET -3.700005 -0.000015 0.003713
										CHANNELS 6 Xposition Yposition Zposition Xrotation Yrotation Zrotation
										JOINT mixamorig:RightHandMiddle3
										{
											OFFSET -2.949974 0.000015 -0.002054
											CHANNELS 6 Xposition Yposition Zposition Xrotation Yrotation Zrotation
											JOINT mixamorig:RightHandMiddle4
											{
												OFFSET -2.946640 0.000000 -0.000156
												CHANNELS 6 Xposition Yposition Zposition Xrotation Yrotation Zrotation
												End Site
												{
													OFFSET -294.664337 0.000000 -0.113670
												}
											}
										}
									}
								}
								JOINT mixamorig:RightHandRing1
								{
									OFFSET -9.103600 -0.043076 -1.865134
									CHANNELS 6 Xposition Yposition Zposition Xrotation Yrotation Zrotation
									JOINT mixamorig:RightHandRing2
									{
										OFFSET -3.379288 0.000000 -0.001055
										CHANNELS 6 Xposition Yposition Zposition Xrotation Yrotation Zrotation
										JOINT mixamorig:RightHandRing3
										{
											OFFSET -2.889687 -0.000015 0.000379
											CHANNELS 6 Xposition Yposition Zposition Xrotation Yrotation Zrotation
											JOINT mixamorig:RightHandRing4
											{
												OFFSET -2.638809 -0.000015 0.000941
												CHANNELS 6 Xposition Yposition Zposition Xrotation Yrotation Zrotation
												End Site
												{
													OFFSET -263.880371 0.000000 0.516020
												}
											}
										}
									}
								}
								JOINT mixamorig:RightHandPinky1
								{
									OFFSET -8.076683 -0.486710 -3.806280
									CHANNELS 6 Xposition Yposition Zposition Xrotation Yrotation Zrotation
									JOINT mixamorig:RightHandPinky2
									{
										OFFSET -3.600014 -0.000015 -0.003747
										CHANNELS 6 Xposition Yposition Zposition Xrotation Yrotation Zrotation
										JOINT mixamorig:RightHandPinky3
										{
											OFFSET -2.099983 0.000000 -0.005739
											CHANNELS 6 Xposition Yposition Zposition Xrotation Yrotation Zrotation
											JOINT mixamorig:RightHandPinky4
											{
												OFFSET -2.115768 -0.000031 -0.003680
												CHANNELS 6 Xposition Yposition Zposition Xrotation Yrotation Zrotation
												End Site
												{
													OFFSET -211.577087 0.000000 -0.350686
												}
											}
										}
									}
								}
							}
						}
					}
				}
				JOINT mixamorig:LeftShoulder
				{
					OFFSET 4.570447 11.014725 -2.160855
					CHANNELS 6 Xposition Yposition Zposition Xrotation Yrotation Zrotation
					JOINT mixamorig:LeftArm
					{
						OFFSET 10.592371 -0.524597 -2.232119
						CHANNELS 6 Xposition Yposition Zposition Xrotation Yrotation Zrotation
						JOINT mixamorig:LeftForeArm
						{
							OFFSET 27.841532 -0.000031 0.000026
							CHANNELS 6 Xposition Yposition Zposition Xrotation Yrotation Zrotation
							JOINT mixamorig:LeftHand
							{
								OFFSET 28.328846 -0.000061 0.000022
								CHANNELS 6 Xposition Yposition Zposition Xrotation Yrotation Zrotation
								JOINT mixamorig:LeftHandThumb1
								{
									OFFSET 2.466141 -1.576172 2.681732
									CHANNELS 6 Xposition Yposition Zposition Xrotation Yrotation Zrotation
									JOINT mixamorig:LeftHandThumb2
									{
										OFFSET 3.217812 -1.872070 1.916482
										CHANNELS 6 Xposition Yposition Zposition Xrotation Yrotation Zrotation
										JOINT mixamorig:LeftHandThumb3
										{
											OFFSET 2.656029 -1.528778 1.514513
											CHANNELS 6 Xposition Yposition Zposition Xrotation Yrotation Zrotation
											JOINT mixamorig:LeftHandThumb4
											{
												OFFSET 2.020889 -1.154053 1.115139
												CHANNELS 6 Xposition Yposition Zposition Xrotation Yrotation Zrotation
												End Site
												{
													OFFSET 190.885437 -115.081749 130.048782
												}
											}
										}
									}
								}
								JOINT mixamorig:LeftHandIndex1
								{
									OFFSET 9.109314 -0.518021 2.259871
									CHANNELS 6 Xposition Yposition Zposition Xrotation Yrotation Zrotation
									JOINT mixamorig:LeftHandIndex2
									{
										OFFSET 3.699989 0.000000 -0.000322
										CHANNELS 6 Xposition Yposition Zposition Xrotation Yrotation Zrotation
										JOINT mixamorig:LeftHandIndex3
										{
											OFFSET 2.850006 0.000000 0.000352
											CHANNELS 6 Xposition Yposition Zposition Xrotation Yrotation Zrotation
											JOINT mixamorig:LeftHandIndex4
											{
												OFFSET 2.774864 -0.000031 -0.000027
												CHANNELS 6 Xposition Yposition Zposition Xrotation Yrotation Zrotation
												End Site
												{
													OFFSET 277.486267 0.000000 -0.009857
												}
											}
										}
									}
								}
								JOINT mixamorig:LeftHandMiddle1
								{
									OFFSET 9.533394 0.000061 0.000044
									CHANNELS 6 Xposition Yposition Zposition Xrotation Yrotation Zrotation
									JOINT mixamorig:LeftHandMiddle2
									{
										OFFSET 3.699989 -0.000015 -0.000231
										CHANNELS 6 Xposition Yposition Zposition Xrotation Yrotation Zrotation
										JOINT mixamorig:LeftHandMiddle3
										{
											OFFSET 2.949997 -0.000015 -0.000059
											CHANNELS 6 Xposition Yposition Zposition Xrotation Yrotation Zrotation
											JOINT mixamorig:LeftHandMiddle4
											{
												OFFSET 2.952896 0.000031 0.000063
												CHANNELS 6 Xposition Yposition Zposition Xrotation Yrotation Zrotation
												End Site
												{
													OFFSET 295.289337 0.000000 0.022810
												}
											}
										}
									}
								}
								JOINT mixamorig:LeftHandRing1
								{
									OFFSET 9.104523 -0.042999 -1.865074
									CHANNELS 6 Xposition Yposition Zposition Xrotation Yrotation Zrotation
									JOINT mixamorig:LeftHandRing2
									{
										OFFSET 3.150009 -0.000031 0.000043
										CHANNELS 6 Xposition Yposition Zposition Xrotation Yrotation Zrotation
										JOINT mixamorig:LeftHandRing3
										{
											OFFSET 2.949982 -0.000015 0.000040
											CHANNELS 6 Xposition Yposition Zposition Xrotation Yrotation Zrotation
											JOINT mixamorig:LeftHandRing4
											{
												OFFSET 2.644348 0.000000 0.000057
												CHANNELS 6 Xposition Yposition Zposition Xrotation Yrotation Zrotation
												End Site
												{
													OFFSET 264.434631 0.000000 0.012105
												}
											}
										}
									}
								}
								JOINT mixamorig:LeftHandPinky1
								{
									OFFSET 8.077789 -0.486847 -3.806259
									CHANNELS 6 Xposition Yposition Zposition Xrotation Yrotation Zrotation
									JOINT mixamorig:LeftHandPinky2
									{
										OFFSET 3.599953 0.000031 0.014727
										CHANNELS 6 Xposition Yposition Zposition Xrotation Yrotation Zrotation
										JOINT mixamorig:LeftHandPinky3
										{
											OFFSET 2.100021 0.000015 0.007705
											CHANNELS 6 Xposition Yposition Zposition Xrotation Yrotation Zrotation
											JOINT mixamorig:LeftHandPinky4
											{
												OFFSET 2.125504 0.000031 0.007517
												CHANNELS 6 Xposition Yposition Zposition Xrotation Yrotation Zrotation
												End Site
												{
													OFFSET 212.550781 0.000000 0.625752
												}
											}
										}
									}
								}
							}
						}
					}
				}
			}
		}
	}
	JOINT mixamorig:RightUpLeg
	{
		OFFSET -8.207787 -6.751648 -1.599560
		CHANNELS 6 Xposition Yposition Zposition Xrotation Yrotation Zrotation
		JOINT mixamorig:RightLeg
		{
			OFFSET -0.000002 -44.370117 0.345942
			CHANNELS 6 Xposition Yposition Zposition Xrotation Yrotation Zrotation
			JOINT mixamorig:RightFoot
			{
				OFFSET 0.000003 -44.423679 -3.043532
				CHANNELS 6 Xposition Yposition Zposition Xrotation Yrotation Zrotation
				JOINT mixamorig:RightToeBase
				{
					OFFSET -0.000002 -8.728671 10.710558
					CHANNELS 6 Xposition Yposition Zposition Xrotation Yrotation Zrotation
					JOINT mixamorig:RightToe_End
					{
						OFFSET -0.000001 -0.000679 9.278119
						CHANNELS 6 Xposition Yposition Zposition Xrotation Yrotation Zrotation
						End Site
						{
							OFFSET 0.000000 -0.067690 927.812134
						}
					}
				}
			}
		}
	}
	JOINT mixamorig:LeftUpLeg
	{
		OFFSET 8.207793 -6.751686 -1.599556
		CHANNELS 6 Xposition Yposition Zposition Xrotation Yrotation Zrotation
		JOINT mixamorig:LeftLeg
		{
			OFFSET -0.000004 -44.370014 0.346954
			CHANNELS 6 Xposition Yposition Zposition Xrotation Yrotation Zrotation
			JOINT mixamorig:LeftFoot
			{
				OFFSET -0.000001 -44.423672 -3.044401
				CHANNELS 6 Xposition Yposition Zposition Xrotation Yrotation Zrotation
				JOINT mixamorig:LeftToeBase
				{
					OFFSET -0.000002 -8.728669 10.710558
					CHANNELS 6 Xposition Yposition Zposition Xrotation Yrotation Zrotation
					JOINT mixamorig:LeftToe_End
					{
						OFFSET -0.000003 -0.000679 9.278133
						CHANNELS 6 Xposition Yposition Zposition Xrotation Yrotation Zrotation
						End Site
						{
							OFFSET 0.000000 -0.068021 927.813477
						}
					}
				}
			}
		}
	}
}
MOTION
Frames: 3
Frame Time: 0.033333
0.000006 104.270477 1.554256 0.000010 0.000003 -0.000113 -0.000005 10.181587 0.131522 0.000001 -0.000003 0.000084 -0.000000 9.893967 -1.470711 0.000001 0.000000 -0.000000 -0.000000 9.220802 -1.370642 0.000000 -0.000000 -0.000000 0.000001 16.740433 -2.049030 0.000000 -0.000000 -0.000000 0.000000 9.617859 1.685014 0.000000 0.000000 0.000000 0.000002 22.037384 7.501101 0.000000 -0.000000 0.000000 -4.569968 11.014880 -2.160881 0.000008 0.000001 -0.000038 -10.592806 -0.524828 -2.231766 67.135357 62.250009 -43.671519 -27.841448 0.000006 0.000609 8.075818 109.897587 -11.492015 -28.328821 0.000037 0.000030 -0.000322 -0.000044 0.000007 -2.464783 -1.573624 2.682154 -51.105135 -207.320010 -119.941031 -3.214839 -1.872433 1.924666 125.607056 2.451293 135.349665 -2.654620 -1.527634 1.513032 129.884284 17.373069 121.803542 -2.018814 -1.152013 1.108050 -0.000003 0.000000 -0.000000 -9.108393 -0.517653 2.260264 127.087158 22.482295 -43.638181 -3.700081 0.000182 0.001685 125.607848 26.521599 -49.227175 -2.850127 0.000277 -0.000124 120.882546 22.282772 -38.298735 -2.772161 0.000002 -0.000017 -0.000001 -0.000000 -0.000001 -9.532614 0.000217 0.000357 117.516738 19.397500 -31.708163 -3.700115 0.000264 0.004081 111.017294 19.999016 -28.639521 -2.950079 0.000302 -0.001716 111.102883 17.140817 -24.771503 -2.946617 0.000017 -0.000153 0.000001 -0.000001 -0.000000 -9.103708 -0.042814 -1.864747 117.157210 22.062530 -35.322081 -3.379340 0.000280 -0.000696 112.162607 16.014009 -23.657593 -2.889781 0.000328 0.000717 112.868856 12.382552 -18.643705 -2.638805 -0.000014 0.000940 0.000001 -0.000002 -0.000002 -8.076788 -0.486497 -3.805880 112.834445 33.069812 -47.946576 -3.600100 0.000179 -0.003354 119.622321 20.299920 -33.533138 -2.100041 0.000236 -0.005323 121.834701 12.822899 -22.410754 -2.115773 -0.000033 -0.003686 0.000001 -0.000000 -0.000001 4.570446 11.014691 -2.160851 -0.000018 0.000010 -0.000021 10.592510 -0.524524 -2.232394 66.655017 -58.487832 40.423720 27.841778 -0.000060 -0.000094 34.152940 -107.360854 45.359204 28.328838 -0.000013 0.000021 0.000021 -0.000089 0.000000 2.466114 -1.576175 2.681884 0.033206 132.777074 -59.097966 3.217846 -1.871963 1.916538 -144.160268 24.334941 66.866343 2.656116 -1.528659 1.514577 -159.470587 5.937494 63.405773 2.020891 -1.154068 1.115144 0.000003 0.000007 0.000002 9.109255 -0.518038 2.259951 173.916560 -35.423041 161.071324 3.700096 0.000086 -0.000327 128.817641 -39.806237 74.209923 2.850123 0.000197 0.000285 120.628599 -26.817145 45.385699 2.774894 -0.000046 -0.000025 0.000000 -0.000001 0.000000 9.533172 0.000241 0.000250 -145.055309 -33.985235 -88.306580 3.699916 -0.000039 -0.000138 -186.473986 -31.396252 -202.764821 2.950140 0.000100 -0.000039 -201.979923 -21.451765 -271.414560 2.952873 -0.000011 0.000073 0.000000 -0.000000 0.000003 9.104387 -0.042809 -1.864825 -116.091824 -32.834908 -50.570420 3.149653 0.000192 0.000224 -163.130940 -28.791631 -119.967888 2.949574 0.000184 0.000178 -171.173953 -19.596656 -131.838839 2.644316 0.000033 0.000036 -0.000000 -0.000000 0.000000 8.077713 -0.486768 -3.806022 -77.746390 -34.664231 -28.336937 3.599866 0.000239 0.015001 -103.040097 -19.544634 -24.763694 2.099910 0.000303 0.007961 -118.382191 -12.940971 -22.011371 2.125501 0.000002 0.007515 0.000001 0.000000 0.000001 -8.207786 -6.751667 -1.599560 -0.077001 -0.000003 0.000080 -0.000002 -44.370110 0.345938 0.153719 -0.000000 -0.000000 0.000000 -44.423679 -3.043532 -0.076700 0.000000 -0.000002 -0.000006 -8.728667 10.710559 -0.000009 -0.000000 -0.000000 -0.000001 -0.000679 9.278123 0.000000 -0.000000 -0.000000 8.207792 -6.751710 -1.599556 -0.074518 -0.000003 0.000081 -0.000002 -44.370014 0.346960 0.148822 0.000002 0.000000 -0.000001 -44.423664 -3.044403 -0.074314 0.000000 -0.000002 -0.000004 -8.728671 10.710558 0.000007 -0.000000 -0.000000 0.000000 -0.000680 9.278137 -0.000000 0.000000 -0.000001 
0.000006 104.270477 1.554256 0.000010 0.000003 -0.000113 -0.000005 10.181587 0.131522 0.000001 -0.000003 0.000084 -0.000000 9.893967 -1.470711 0.000001 0.000000 -0.000000 -0.000000 9.220802 -1.370642 0.000000 -0.000000 -0.000000 0.000001 16.740433 -2.049030 0.000000 -0.000000 -0.000000 0.000000 9.617859 1.685014 0.000000 0.000000 0.000000 0.000002 22.037384 7.501101 0.000000 -0.000000 0.000000 -4.569968 11.014880 -2.160881 0.000008 0.000001 -0.000038 -10.592801 -0.524841 -2.231761 66.904783 62.182650 -43.446478 -27.841446 0.000002 0.000610 8.403560 109.586663 -11.888469 -28.328827 0.000005 0.000027 -0.000323 -0.000044 0.000006 -2.464775 -1.573591 2.682156 -52.266954 -206.474187 -117.999414 -3.214883 -1.872415 1.924640 125.222448 9.076294 124.478326 -2.654801 -1.527657 1.512996 139.406388 32.908046 81.183512 -2.018853 -1.152008 1.108073 -0.000004 -0.000000 0.000000 -9.108403 -0.517633 2.260262 125.732376 21.700455 -41.105041 -3.700076 0.000179 0.001689 125.222707 26.403039 -48.670080 -2.850143 0.000279 -0.000124 120.609420 22.279917 -38.097576 -2.772173 -0.000012 -0.000015 0.000002 0.000001 -0.000002 -9.532616 0.000238 0.000355 116.726102 18.744476 -30.228641 -3.700121 0.000275 0.004093 110.806316 20.085679 -28.653036 -2.950082 0.000308 -0.001718 111.813304 17.483345 -25.586076 -2.946619 0.000015 -0.000153 -0.000001 0.000002 -0.000002 -9.103703 -0.042809 -1.864745 116.387407 21.593631 -34.111850 -3.379359 0.000289 -0.000719 110.526107 15.234518 -21.859932 -2.889786 0.000319 0.000734 111.662965 11.921895 -17.561287 -2.638803 -0.000004 0.000954 -0.000001 0.000001 0.000004 -8.076781 -0.486480 -3.805878 111.719758 32.847893 -46.760127 -3.600096 0.000196 -0.003336 118.914031 19.108182 -31.177508 -2.100043 0.000254 -0.005317 122.236057 12.100968 -21.319992 -2.115783 -0.000027 -0.003670 -0.000002 -0.000002 -0.000000 4.570446 11.014691 -2.160851 -0.000018 0.000010 -0.000021 10.592510 -0.524528 -2.232395 66.334258 -58.661961 40.329320 27.841772 -0.000058 -0.000105 33.779223 -106.827690 44.492938 28.328842 -0.000012 0.000027 0.000022 -0.000089 -0.000001 2.466109 -1.576154 2.681884 0.093611 134.032968 -60.048114 3.217851 -1.871941 1.916534 -145.055897 19.683077 63.810926 2.656141 -1.528621 1.514560 -156.829613 -0.773397 53.394966 2.020876 -1.154060 1.115140 0.000000 0.000004 0.000003 9.109235 -0.518030 2.259961 177.122269 -37.525022 171.510913 3.700089 0.000065 -0.000333 130.510353 -40.366244 77.183289 2.850120 0.000208 0.000284 122.401457 -26.130127 45.770245 2.774895 -0.000030 -0.000006 0.000000 0.000003 -0.000000 9.533195 0.000245 0.000260 -139.295520 -36.166644 -82.713072 3.699877 -0.000031 -0.000127 -182.803934 -31.695920 -189.863631 2.950115 0.000071 -0.000019 -199.745645 -21.681913 -264.516670 2.952867 -0.000030 0.000066 0.000001 -0.000002 -0.000000 9.104391 -0.042832 -1.864840 -113.598900 -32.979381 -48.680111 3.149664 0.000199 0.000233 -161.559437 -29.553269 -116.781618 2.949577 0.000131 0.000186 -172.881268 -20.295782 -141.668000 2.644331 0.000033 0.000061 0.000000 -0.000000 0.000001 8.077713 -0.486763 -3.806015 -76.431504 -34.122413 -27.265786 3.599866 0.000257 0.015006 -106.338307 -19.929790 -26.725914 2.099910 0.000313 0.007944 -124.451142 -14.073761 -26.876933 2.125497 0.000000 0.007503 0.000003 -0.000000 -0.000000 -8.207786 -6.751667 -1.599560 -0.077001 -0.000003 0.000080 -0.000002 -44.370110 0.345938 0.153719 -0.000000 -0.000000 0.000000 -44.423679 -3.043532 -0.076700 0.000000 -0.000002 -0.000006 -8.728667 10.710559 -0.000009 -0.000000 -0.000000 -0.000001 -0.000679 9.278123 0.000000 -0.000000 -0.000000 8.207792 -6.751710 -1.599556 -0.074518 -0.000003 0.000081 -0.000002 -44.370014 0.346960 0.148822 0.000002 0.000000 -0.000001 -44.423664 -3.044403 -0.074314 0.000000 -0.000002 -0.000004 -8.728671 10.710558 0.000007 -0.000000 -0.000000 0.000000 -0.000680 9.278137 -0.000000 0.000000 -0.000001 
0.000006 104.270477 1.554256 0.000010 0.000003 -0.000113 -0.000005 10.181587 0.131522 0.000001 -0.000003 0.000084 -0.000000 9.893967 -1.470711 0.000001 0.000000 -0.000000 -0.000000 9.220802 -1.370642 0.000000 -0.000000 -0.000000 0.000001 16.740433 -2.049030 0.000000 -0.000000 -0.000000 0.000000 9.617859 1.685014 0.000000 0.000000 0.000000 0.000002 22.037384 7.501101 0.000000 -0.000000 0.000000 -4.569968 11.014880 -2.160881 0.000008 0.000001 -0.000038 -10.592800 -0.524830 -2.231763 67.168162 62.246307 -43.693222 -27.841442 0.000027 0.000610 8.977663 109.649924 -12.712176 -28.328829 0.000020 0.000026 -0.000323 -0.000044 0.000007 -2.464779 -1.573606 2.682159 -50.640286 -207.668104 -122.302610 -3.214878 -1.872417 1.924649 125.090530 9.548398 122.958350 -2.654786 -1.527635 1.513006 137.774546 31.562615 84.273531 -2.018820 -1.152008 1.108055 -0.000005 -0.000002 0.000005 -9.108396 -0.517654 2.260266 127.313087 22.595955 -44.039765 -3.700089 0.000190 0.001679 123.499492 26.642104 -47.515574 -2.850141 0.000278 -0.000132 117.889912 22.378548 -36.368725 -2.772171 -0.000015 -0.000027 0.000000 0.000001 -0.000000 -9.532610 0.000224 0.000343 117.371159 19.759937 -32.190231 -3.700111 0.000274 0.004077 109.488568 20.126329 -28.043275 -2.950082 0.000291 -0.001728 109.858395 17.484002 -24.698374 -2.946620 0.000000 -0.000155 -0.000002 0.000002 -0.000002 -9.103722 -0.042823 -1.864748 117.073677 22.561119 -36.034610 -3.379349 0.000286 -0.000702 110.368480 15.449080 -22.100184 -2.889785 0.000332 0.000727 110.413409 11.917007 -17.154718 -2.638821 0.000000 0.000933 0.000002 -0.000002 0.000002 -8.076794 -0.486487 -3.805891 111.977543 32.714229 -46.781748 -3.600086 0.000206 -0.003339 117.870542 19.589257 -31.329890 -2.100033 0.000247 -0.005313 120.542074 12.483474 -21.264295 -2.115769 -0.000043 -0.003688 0.000004 -0.000000 -0.000003 4.570446 11.014691 -2.160851 -0.000018 0.000010 -0.000021 10.592512 -0.524522 -2.232399 66.350992 -58.546879 40.253956 27.841774 -0.000059 -0.000109 32.863605 -106.811960 43.325597 28.328827 -0.000027 0.000020 0.000021 -0.000089 -0.000001 2.466125 -1.576190 2.681893 -0.045537 134.050372 -59.883670 3.217880 -1.871935 1.916534 -145.485843 19.681450 64.148932 2.656111 -1.528625 1.514560 -159.570650 -0.392935 55.874294 2.020910 -1.154080 1.115155 0.000001 0.000004 0.000004 9.109299 -0.518060 2.259943 170.410160 -35.925521 150.951279 3.700115 0.000069 -0.000329 131.860408 -39.850944 78.155164 2.850125 0.000178 0.000300 123.495899 -26.963763 48.085276 2.774878 -0.000031 -0.000025 -0.000001 -0.000001 0.000001 9.533165 0.000192 0.000229 -151.004185 -36.476284 -103.761659 3.699993 -0.000040 -0.000158 -191.638948 -33.175615 -217.785759 2.950137 0.000093 -0.000071 -206.901470 -22.505294 -280.476008 2.952871 -0.000048 0.000066 0.000004 0.000001 0.000001 9.104364 -0.042834 -1.864852 -120.158669 -35.466782 -58.118387 3.149667 0.000149 0.000217 -164.517824 -31.587180 -128.660437 2.949575 0.000086 0.000174 -175.017450 -21.460651 -154.132521 2.644327 0.000026 0.000064 0.000000 -0.000000 0.000002 8.077694 -0.486790 -3.806026 -77.709077 -38.525235 -31.504046 3.599804 0.000249 0.015000 -108.226820 -24.833678 -34.110562 2.099859 0.000319 0.007954 -126.496005 -17.100830 -33.657448 2.125497 0.000015 0.007509 -0.000001 0.000000 -0.000001 -8.207786 -6.751667 -1.599560 -0.077001 -0.000003 0.000080 -0.000002 -44.370110 0.345938 0.153719 -0.000000 -0.000000 0.000000 -44.423679 -3.043532 -0.076700 0.000000 -0.000002 -0.000006 -8.728667 10.710559 -0.000009 -0.000000 -0.000000 -0.000001 -0.000679 9.278123 0.000000 -0.000000 -0.000000 8.207792 -6.751710 -1.599556 -0.074518 -0.000003 0.000081 -0.000002 -44.370014 0.346960 0.148822 0.000002 0.000000 -0.000001 -44.423664 -3.044403 -0.074314 0.000000 -0.000002 -0.000004 -8.728671 10.710558 0.000007 -0.000000 -0.000000 0.000000 -0.000680 9.278137 -0.000000 0.000000 -0.000001 
